<?xml version="1.0" encoding="UTF-8"?>
<svg version="1.1" xmlns="http://www.w3.org/2000/svg" width="3633" height="3633">
<path d="M0 0 C1.25794121 -0.00282738 2.51588242 -0.00565475 3.81194305 -0.00856781 C9.8214361 -0.0219283 15.83090723 -0.03185958 21.84041238 -0.0357697 C27.89938462 -0.03974302 33.95816754 -0.05222699 40.01708984 -0.078125 C89.21420553 -0.28382142 138.2727722 1.14132331 187.296875 5.515625 C189.0985463 5.67144547 189.0985463 5.67144547 190.93661499 5.83041382 C282.00699024 13.71271512 372.42220112 28.07615984 461.27758789 49.59429932 C463.74601718 50.1908344 466.2155888 50.78238887 468.68554688 51.37255859 C511.42859362 61.60612347 553.69520874 73.74885141 595.45672607 87.43676758 C597.77382584 88.19557681 600.09207731 88.95076599 602.41064453 89.70507812 C655.51199142 107.00259004 707.5967706 126.89973153 758.796875 149.203125 C759.45391418 149.48909546 760.11095337 149.77506592 760.78790283 150.06970215 C789.86100062 162.7351916 818.47798775 176.33642119 846.94671631 190.29626465 C848.61053891 191.11179186 850.27518844 191.92563146 851.93994141 192.73925781 C862.06153066 197.69317851 872.02027457 202.88784043 881.89038086 208.32592773 C887.24193975 211.27321019 892.61296155 214.17872581 898.015625 217.03125 C912.81363603 224.84822574 927.39489576 232.91259922 941.79882812 241.44238281 C946.01209815 243.9168212 950.2573687 246.33400345 954.50073242 248.75634766 C967.21335804 256.02366448 979.68312658 263.61909434 992.04833984 271.46142578 C994.63348528 273.09958776 997.223708 274.72929457 999.81640625 276.35546875 C1035.97410583 299.056909 1071.30207377 323.04772242 1105.796875 348.203125 C1106.5688623 348.76499512 1107.34084961 349.32686523 1108.13623047 349.90576172 C1119.17646934 357.95049898 1130.03098114 366.20307518 1140.78222656 374.62939453 C1143.69019404 376.90093578 1146.61762842 379.14664023 1149.546875 381.390625 C1161.51207905 390.58887562 1173.26508679 400.00361298 1184.89013672 409.62841797 C1187.43246575 411.72803669 1189.98932408 413.80959012 1192.546875 415.890625 C1198.69602625 420.91753296 1204.75115137 426.05274589 1210.796875 431.203125 C1211.38436523 431.70279785 1211.97185547 432.2024707 1212.57714844 432.71728516 C1218.44182834 437.70813092 1224.28767048 442.70770554 1229.984375 447.890625 C1233.39509016 450.99280508 1236.8942126 453.93550774 1240.484375 456.828125 C1244.2717756 459.89208953 1247.76668972 463.05412217 1251.15234375 466.55078125 C1252.80529103 468.21158101 1254.51939138 469.73934891 1256.296875 471.265625 C1262.2963877 476.44439511 1268.02523185 481.91928134 1273.8046875 487.34033203 C1275.7334369 489.14380727 1277.66979083 490.93865765 1279.609375 492.73046875 C1286.51526942 499.11990054 1293.29964751 505.59529281 1299.87915039 512.32226562 C1302.67434793 515.16221019 1305.52254639 517.86510955 1308.546875 520.4609375 C1313.72859568 524.94026232 1318.52863206 529.78919365 1323.359375 534.640625 C1324.7196582 535.99510742 1324.7196582 535.99510742 1326.10742188 537.37695312 C1330.60121118 541.87725989 1334.93328557 546.43634784 1339.07397461 551.26196289 C1342.3106302 554.90864684 1345.81954215 558.28799846 1349.296875 561.703125 C1354.07045117 566.39130625 1358.6813074 571.12574489 1363.04589844 576.19824219 C1366.15143451 579.75410697 1369.4212991 583.15533316 1372.671875 586.578125 C1377.77891119 591.98003417 1382.84990367 597.40038396 1387.79296875 602.953125 C1389.1922281 604.52422321 1390.60195952 606.08602965 1392.01953125 607.640625 C1395.88336967 611.8822315 1399.62734606 616.17779834 1403.234375 620.640625 C1406.31024088 624.44400003 1409.48440666 628.10395152 1412.796875 631.703125 C1416.83197521 636.09207246 1420.63517804 640.61175266 1424.37890625 645.25 C1427.15188936 648.63671282 1429.99927209 651.95254243 1432.859375 655.265625 C1436.87338638 659.92457796 1440.80104786 664.63031579 1444.61328125 669.45703125 C1446.87717311 672.30410813 1449.17390909 675.12219509 1451.47558594 677.9387207 C1457.72499808 685.59038292 1463.8114238 693.34413882 1469.796875 701.203125 C1471.33767807 703.20379039 1472.87936995 705.20377153 1474.421875 707.203125 C1476.21525847 709.53514179 1478.00605885 711.86913641 1479.796875 714.203125 C1480.40370117 714.99315918 1481.01052734 715.78319336 1481.63574219 716.59716797 C1489.43022858 726.75286918 1497.14534898 736.93742981 1504.51904297 747.40283203 C1506.45949514 750.1366674 1508.43175821 752.8471896 1510.40136719 755.56005859 C1525.76455422 776.73572736 1540.3752518 798.37982403 1554.796875 820.203125 C1555.17344238 820.77281006 1555.55000977 821.34249512 1555.93798828 821.92944336 C1572.26325344 846.6408728 1587.6945989 871.84583131 1602.7142334 897.36529541 C1604.32428419 900.09842425 1605.94019516 902.82808686 1607.5546875 905.55859375 C1616.61628733 920.93392655 1625.29549935 936.51289639 1633.796875 952.203125 C1634.13936279 952.83482605 1634.48185059 953.4665271 1634.8347168 954.11737061 C1654.00141388 989.50906208 1672.30985209 1025.48156564 1688.796875 1062.203125 C1689.409522 1063.55938429 1690.02249321 1064.91549717 1690.63574219 1066.27148438 C1729.41830287 1152.09991467 1762.14801622 1240.92120635 1794.12231445 1359.58886719 C1794.77882935 1362.13318912 1795.44036974 1364.67614921 1796.10351562 1367.21875 C1820.48059676 1460.83588908 1836.31284839 1556.832169 1849.796875 1723.203125 C1849.84206174 1724.03099423 1849.88724848 1724.85886347 1849.93380451 1725.71181965 C1850.81032849 1742.18286828 1850.97562078 1758.6391528 1850.99706364 1775.13008833 C1851.0000528 1777.32788413 1851.0041671 1779.52567538 1851.00856781 1781.72346878 C1851.02218554 1788.70472025 1851.03187128 1795.6859605 1851.0357697 1802.66722429 C1851.0397556 1809.75314512 1851.0518424 1816.83892959 1851.078125 1823.92480469 C1851.22387742 1864.12974178 1850.54729673 1904.07188557 1847.796875 1944.203125 C1847.74136726 1945.02447937 1847.68585953 1945.84583374 1847.62866974 1946.69207764 C1847.02146248 1955.64338761 1846.30343823 1964.58120255 1845.484375 1973.515625 C1845.32855453 1975.26366928 1845.32855453 1975.26366928 1845.16958618 1977.04702759 C1835.48135626 2085.6057216 1816.64983853 2193.22996064 1771.796875 2353.203125 C1771.5225061 2354.10013123 1771.24813721 2354.99713745 1770.9654541 2355.92132568 C1753.0326703 2414.41936673 1731.92851558 2471.97669904 1707.796875 2528.203125 C1707.50059204 2528.89432434 1707.20430908 2529.58552368 1706.89904785 2530.29766846 C1695.35415519 2557.20933581 1683.02294766 2583.73007713 1670.28955078 2610.10009766 C1668.76008395 2613.27960754 1667.24367045 2616.46506362 1665.73046875 2619.65234375 C1660.09988202 2631.49549695 1654.28260218 2643.19112414 1648.09619141 2654.75292969 C1646.70007735 2657.38566187 1645.32996256 2660.03075645 1643.96484375 2662.6796875 C1637.93123845 2674.37965252 1631.66197668 2685.90922337 1625.1328125 2697.33984375 C1622.87966526 2701.28516403 1620.65753259 2705.24557531 1618.4609375 2709.22265625 C1610.86476873 2722.96133846 1602.89635363 2736.4205917 1594.69921875 2749.8046875 C1591.60469383 2754.86013603 1588.58053723 2759.9495344 1585.609375 2765.078125 C1579.65042714 2775.31398786 1573.21537341 2785.25154059 1566.796875 2795.203125 C1566.23532715 2796.07437012 1565.6737793 2796.94561523 1565.09521484 2797.84326172 C1537.36867704 2840.80595165 1508.05478376 2882.73003087 1476.796875 2923.203125 C1476.2296875 2923.93917969 1475.6625 2924.67523437 1475.078125 2925.43359375 C1467.2579701 2935.57535714 1459.29299758 2945.58352436 1451.18652344 2955.49755859 C1449.29075324 2957.82430676 1447.41723979 2960.16842807 1445.546875 2962.515625 C1434.93200119 2975.81191787 1423.91899575 2988.76169904 1412.83203125 3001.6640625 C1410.81116394 3004.01686912 1408.79875941 3006.37651711 1406.79296875 3008.7421875 C1400.83762902 3015.75343166 1394.7342739 3022.58873933 1388.46484375 3029.3203125 C1386.36848869 3031.58548093 1384.31422822 3033.86827067 1382.296875 3036.203125 C1377.78693476 3041.41194217 1373.07111355 3046.43359753 1368.38623047 3051.484375 C1366.8208476 3053.17720072 1365.26278123 3054.87644617 1363.70703125 3056.578125 C1358.35190006 3062.42741761 1352.93529113 3068.16106953 1347.24609375 3073.69140625 C1345.32000391 3075.66664671 1343.53278332 3077.65864282 1341.74316406 3079.75244141 C1337.43834589 3084.68671349 1332.84116925 3089.30258303 1328.20703125 3093.92578125 C1327.30367538 3094.83009384 1326.40031952 3095.73440643 1325.46958923 3096.66612244 C1323.56891432 3098.56747443 1321.66727892 3100.46780053 1319.76391602 3102.36645508 C1317.34569108 3104.77898361 1314.93198542 3107.19597581 1312.51960087 3109.61434269 C1310.18869099 3111.94977075 1307.85393544 3114.28134677 1305.51953125 3116.61328125 C1304.66408218 3117.47075455 1303.80863312 3118.32822784 1302.92726135 3119.21168518 C1298.58176767 3123.54042683 1294.1774074 3127.72860562 1289.51023865 3131.70994568 C1286.80070241 3134.07127947 1284.30223665 3136.62893473 1281.796875 3139.203125 C1277.97412842 3143.13089209 1274.01282669 3146.80066203 1269.8671875 3150.38671875 C1266.42795709 3153.40415675 1263.11809184 3156.55705045 1259.796875 3159.703125 C1255.1428122 3164.11175871 1250.43769885 3168.43323341 1245.59619141 3172.63574219 C1243.36100087 3174.58281454 1241.17217497 3176.57806969 1238.984375 3178.578125 C1235.52157418 3181.70735327 1231.99008497 3184.70812849 1228.359375 3187.640625 C1224.55599997 3190.71649088 1220.89604848 3193.89065666 1217.296875 3197.203125 C1212.88047356 3201.26296145 1208.33523978 3205.09636321 1203.66796875 3208.86328125 C1200.56700483 3211.39046137 1197.52522045 3213.97938505 1194.484375 3216.578125 C1189.52171426 3220.80601216 1184.45287622 3224.86958929 1179.30493164 3228.86889648 C1174.60070592 3232.5364777 1170.00689705 3236.32558283 1165.421875 3240.140625 C1159.36822916 3245.16409498 1153.20539533 3249.98655462 1146.8828125 3254.66601562 C1141.8294556 3258.40905983 1136.86796687 3262.25726801 1131.921875 3266.140625 C1123.78397381 3272.50953123 1115.4616619 3278.58737574 1107.05126953 3284.58984375 C1104.02386642 3286.75630246 1101.01033152 3288.94165293 1097.99633789 3291.12670898 C1024.83768832 3344.13415794 947.69662139 3391.39651481 867.40234375 3432.7890625 C863.18646494 3434.9629805 858.98023722 3437.15340615 854.78515625 3439.3671875 C842.2238253 3445.99350461 829.55089584 3452.29645233 816.68817139 3458.31640625 C814.61125488 3459.29015147 812.5362587 3460.26791699 810.46142578 3461.24609375 C773.10820721 3478.84308933 735.27770842 3495.2267877 696.796875 3510.203125 C696.17244507 3510.44615356 695.54801514 3510.68918213 694.90466309 3510.9395752 C685.89787622 3514.43907291 676.85980024 3517.85189351 667.796875 3521.203125 C666.78071106 3521.57890686 666.78071106 3521.57890686 665.74401855 3521.96228027 C643.35608809 3530.22932686 620.83849758 3538.05264763 598.14471436 3545.43811035 C595.77284173 3546.21095595 593.40221241 3546.98752505 591.03173828 3547.76464844 C528.67166939 3568.17198059 464.94177003 3584.75649208 400.60919189 3597.63922119 C397.78540085 3598.20542571 394.96271292 3598.77689426 392.14013672 3599.34912109 C304.99168779 3616.95699161 216.55165426 3627.43721886 127.796875 3632.203125 C126.96919271 3632.24831174 126.14151041 3632.29349848 125.28874683 3632.34005451 C108.80656464 3633.21740933 92.33906724 3633.38188015 75.8369801 3633.40331364 C73.63718199 3633.40630244 71.43738842 3633.41041667 69.2375927 3633.41481781 C62.25153787 3633.42843447 55.26549425 3633.43812111 48.27942711 3633.4420197 C41.18614277 3633.44600709 34.09299454 3633.45810214 26.99975586 3633.484375 C-71.41490467 3633.84082674 -169.29382521 3626.02540016 -524.203125 3547.203125 C-525.12919556 3546.90704346 -526.05526611 3546.61096191 -527.00939941 3546.3059082 C-584.18408163 3527.99507897 -640.24246 3506.33687611 -695.203125 3482.203125 C-695.82435242 3481.93087097 -696.44557983 3481.65861694 -697.08563232 3481.37811279 C-726.79982553 3468.35030082 -756.04579021 3454.36788037 -785.078125 3439.890625 C-786.07107574 3439.39678314 -787.06402649 3438.90294128 -788.08706665 3438.39413452 C-801.52397277 3431.70333515 -814.76443329 3424.71575819 -827.90740967 3417.46536255 C-830.84670496 3415.84926981 -833.79967127 3414.26101485 -836.7578125 3412.6796875 C-849.6652116 3405.76856538 -862.35776782 3398.5479418 -874.96630859 3391.10693359 C-878.40960904 3389.08167663 -881.86193399 3387.07251521 -885.31640625 3385.06640625 C-899.89669968 3376.58986399 -914.31226427 3367.90184175 -928.56005859 3358.87304688 C-930.9511725 3357.36231169 -933.35000946 3355.86527783 -935.75390625 3354.375 C-971.03872685 3332.43152765 -1005.41635229 3308.72119557 -1038.79150391 3283.98535156 C-1041.18766161 3282.21455269 -1043.59060744 3280.45341328 -1045.99609375 3278.6953125 C-1056.20436184 3271.22691686 -1066.24276139 3263.57092231 -1076.19726562 3255.76806641 C-1079.05743062 3253.53660857 -1081.94313523 3251.33989676 -1084.828125 3249.140625 C-1090.36626537 3244.89123427 -1095.78661717 3240.50901398 -1101.18969727 3236.08959961 C-1105.50302816 3232.5662447 -1109.86419122 3229.11542339 -1114.265625 3225.703125 C-1119.94236863 3221.28850962 -1125.38951443 3216.6454062 -1130.79785156 3211.90722656 C-1134.48153401 3208.68231775 -1138.20752516 3205.531786 -1142.015625 3202.453125 C-1146.38115098 3198.91943484 -1150.54679758 3195.21406945 -1154.6953125 3191.4296875 C-1157.17903036 3189.22451743 -1159.73107205 3187.14801496 -1162.328125 3185.078125 C-1167.93164299 3180.55067377 -1173.15253433 3175.65962407 -1178.36962891 3170.69482422 C-1182.25145897 3167.00459292 -1186.20469681 3163.42831064 -1190.24975586 3159.91796875 C-1193.36153617 3157.18616712 -1196.37514067 3154.35279608 -1199.390625 3151.515625 C-1204.93777682 3146.30884092 -1204.93777682 3146.30884092 -1210.53515625 3141.15625 C-1217.15021782 3135.12469157 -1223.56116309 3128.93568817 -1229.828125 3122.54125977 C-1232.78944764 3119.53703718 -1235.79042618 3116.65414193 -1238.9921875 3113.90625 C-1244.16289479 3109.44237046 -1248.9479296 3104.60395293 -1253.765625 3099.765625 C-1254.67248047 3098.86263672 -1255.57933594 3097.95964844 -1256.51367188 3097.02929688 C-1261.00746118 3092.52899011 -1265.33953557 3087.96990216 -1269.48022461 3083.14428711 C-1272.7168802 3079.49760316 -1276.22579215 3076.11825154 -1279.703125 3072.703125 C-1284.54158273 3067.95122286 -1289.2302662 3063.16156693 -1293.62890625 3057.99609375 C-1295.24989265 3056.14985862 -1296.94891649 3054.42253801 -1298.703125 3052.703125 C-1301.65195283 3049.79976368 -1304.3644461 3046.76057615 -1307.0625 3043.625 C-1309.28779494 3041.10733054 -1311.57307098 3038.65645773 -1313.87280273 3036.20703125 C-1319.11250493 3030.62601703 -1324.10852648 3024.96077929 -1328.89453125 3018.98046875 C-1331.55593458 3015.77867896 -1334.35794524 3012.74097958 -1337.203125 3009.703125 C-1341.60687751 3004.99564167 -1345.76389205 3000.1664053 -1349.80078125 2995.13671875 C-1352.65272746 2991.65409826 -1355.61121676 2988.27520688 -1358.578125 2984.890625 C-1363.29037015 2979.50090488 -1367.79620387 2973.9963 -1372.17700195 2968.33496094 C-1375.27340037 2964.34607453 -1378.4783975 2960.47332122 -1381.765625 2956.640625 C-1386.18379544 2951.47587455 -1390.3801424 2946.17032976 -1394.4921875 2940.7578125 C-1397.00770229 2937.44693733 -1399.5656331 2934.17043793 -1402.12768555 2930.89550781 C-1410.30112288 2920.44129548 -1418.2866189 2909.85283449 -1426.203125 2899.203125 C-1426.80688965 2898.39166016 -1427.4106543 2897.58019531 -1428.03271484 2896.74414062 C-1435.68652317 2886.44531181 -1443.21524587 2876.0684228 -1450.56347656 2865.54931641 C-1452.35387716 2862.98741204 -1454.14979296 2860.42941272 -1455.9453125 2857.87109375 C-1485.57034595 2815.56682336 -1513.43611695 2771.96219502 -1539.203125 2727.203125 C-1540.1621875 2725.54410156 -1540.1621875 2725.54410156 -1541.140625 2723.8515625 C-1550.18647846 2708.19799576 -1558.96290469 2692.42299515 -1567.45996094 2676.46289062 C-1569.20661538 2673.19659789 -1570.97173089 2669.94094467 -1572.7421875 2666.6875 C-1587.66561426 2639.19475317 -1601.64947394 2611.20310616 -1614.59765625 2582.72607422 C-1615.99866278 2579.65178525 -1617.41017221 2576.58274558 -1618.82701111 2573.51574707 C-1647.50069875 2511.42068612 -1672.39199982 2447.57802825 -1693.45629883 2382.5067749 C-1694.22367305 2380.13974276 -1694.99526727 2377.77411707 -1695.76757812 2375.40869141 C-1704.3508874 2349.08267839 -1712.15270582 2322.5692423 -1719.4732666 2295.86541748 C-1720.163567 2293.34742006 -1720.85658678 2290.83018369 -1721.54980469 2288.31298828 C-1750.94991952 2181.2339253 -1769.23999073 2070.65830603 -1778.453125 1949.328125 C-1778.53025726 1948.27467896 -1778.60738953 1947.22123291 -1778.68685913 1946.13586426 C-1779.21295174 1938.84753595 -1779.67084377 1931.55653316 -1780.08551407 1924.2610321 C-1780.16659478 1922.84231552 -1780.2489005 1921.4236686 -1780.33221054 1920.00508118 C-1782.17826924 1888.54731976 -1782.54868808 1857.1356808 -1782.51879883 1825.62841797 C-1782.51419069 1820.37344753 -1782.52102645 1815.1187099 -1782.53930664 1809.86376953 C-1782.89656881 1706.04356157 -1773.64811055 1602.47689505 -1746.75012207 1452.92822266 C-1746.39465408 1451.15730824 -1746.04034105 1449.38616146 -1745.68737793 1447.61474609 C-1731.97121918 1378.78991636 -1713.25205491 1310.79491267 -1691.203125 1244.203125 C-1690.89375 1243.26746704 -1690.584375 1242.33180908 -1690.265625 1241.36779785 C-1662.40512907 1157.21676607 -1627.75723502 1075.51259044 -1579.421875 979.4921875 C-1578.05640634 976.92755726 -1576.72155339 974.3483455 -1575.390625 971.765625 C-1569.38268839 960.11339005 -1563.13431486 948.63600608 -1556.63671875 937.25 C-1553.18019797 931.18677435 -1549.80403759 925.08021119 -1546.43014526 918.97085571 C-1541.31027729 909.70743693 -1536.13749359 900.50307133 -1530.59716797 891.48291016 C-1528.82049034 888.57737325 -1527.06105997 885.66159436 -1525.30078125 882.74609375 C-1517.58927701 869.98109825 -1509.82230054 857.2575206 -1501.79003906 844.69091797 C-1500.0222036 841.91949591 -1498.26504476 839.14143754 -1496.5078125 836.36328125 C-1487.03961544 821.43306888 -1477.24076762 806.75584969 -1467.203125 792.203125 C-1466.51154297 791.19942871 -1465.81996094 790.19573242 -1465.10742188 789.16162109 C-1456.80613938 777.12944706 -1448.38153997 765.19599462 -1439.77978516 753.37695312 C-1438.16667672 751.15287175 -1436.5643717 748.92136491 -1434.96484375 746.6875 C-1428.04594339 737.03418393 -1420.95549097 727.53456104 -1413.69482422 718.13574219 C-1412.30947772 716.34091356 -1410.92895433 714.54252719 -1409.55078125 712.7421875 C-1400.28274419 700.64054129 -1390.83342282 688.6988028 -1381.19921875 676.88671875 C-1378.80316447 673.94709092 -1376.4337259 670.98782491 -1374.078125 668.015625 C-1370.58326361 663.63049366 -1366.96897307 659.35437098 -1363.33496094 655.0847168 C-1360.45663079 651.69905865 -1357.62495619 648.28182663 -1354.828125 644.828125 C-1346.90558932 635.10243156 -1338.60149979 625.68914954 -1330.1796875 616.39453125 C-1328.33355939 614.34773704 -1326.51319216 612.28180943 -1324.703125 610.203125 C-1317.93184228 602.43789252 -1310.97449779 594.83993887 -1304.00390625 587.25390625 C-1302.20547578 585.29666302 -1300.41193054 583.33532473 -1298.62109375 581.37109375 C-1295.82461214 578.30628407 -1293.01560055 575.25324212 -1290.203125 572.203125 C-1289.70474625 571.66117996 -1289.20636749 571.11923492 -1288.69288635 570.56086731 C-1276.00352795 556.80145853 -1262.75439247 543.59989327 -1249.50976562 530.37939453 C-1246.31491892 527.19029987 -1243.12466114 523.99665786 -1239.93566132 520.80171776 C-1237.44604758 518.30847605 -1234.9540396 515.81763833 -1232.46131897 513.3275032 C-1231.28376691 512.15061135 -1230.10693803 510.97299538 -1228.93089294 509.79459763 C-1223.34366245 504.19862127 -1217.76620134 498.63820347 -1211.73449707 493.51431274 C-1209.78320789 491.84358457 -1207.98673841 490.05043889 -1206.203125 488.203125 C-1203.14195247 485.10066498 -1199.97170232 482.22206076 -1196.66796875 479.3828125 C-1193.28326828 476.38968593 -1189.9977892 473.29469346 -1186.703125 470.203125 C-1181.61616093 465.43780749 -1176.50850099 460.7257406 -1171.203125 456.203125 C-1168.91056831 454.2458318 -1166.61914186 452.28722026 -1164.328125 450.328125 C-1163.7192041 449.80806885 -1163.1102832 449.2880127 -1162.48291016 448.75219727 C-1158.94593136 445.72354666 -1155.45877537 442.65125317 -1152.015625 439.515625 C-1147.85240074 435.73826055 -1143.54604609 432.17885232 -1139.17578125 428.64453125 C-1135.86561086 425.92592876 -1132.6281787 423.13227364 -1129.390625 420.328125 C-1124.26014336 415.89709552 -1119.02270754 411.64581849 -1113.66699219 407.4909668 C-1108.91701384 403.79544149 -1104.27228115 399.98302337 -1099.640625 396.140625 C-1092.61593541 390.32248107 -1085.46768911 384.71830105 -1078.203125 379.203125 C-1076.18165908 377.64144349 -1074.16084349 376.07891987 -1072.140625 374.515625 C-1058.08399993 363.69065729 -1043.83257341 353.13627052 -1029.41650391 342.79589844 C-1027.18742787 341.19182916 -1024.9657698 339.57798437 -1022.74609375 337.9609375 C-985.95240462 311.17812422 -947.64294059 286.15451583 -908.66259766 262.68408203 C-906.53193356 261.40111515 -904.40399269 260.11382402 -902.27734375 258.82421875 C-868.15690278 238.17976105 -833.25139926 218.88832787 -797.80859375 200.6171875 C-793.59271494 198.4432695 -789.38648722 196.25284385 -785.19140625 194.0390625 C-772.01269668 187.0871289 -758.7021054 180.5096626 -745.203125 174.203125 C-743.79653055 173.54414847 -742.38995615 172.88512915 -740.98339844 172.22607422 C-686.17392574 146.57214881 -630.32429634 123.23703121 -573.203125 103.203125 C-572.29425537 102.88426331 -571.38538574 102.56540161 -570.44897461 102.23687744 C-479.95045994 70.5483629 -387.25414752 45.63341615 0 0 Z M1483.29858398 1110.3203125 C1482.30673096 1110.90039062 1481.31487793 1111.48046875 1480.29296875 1112.078125 C1479.17325684 1112.72595947 1478.05354492 1113.37379395 1476.89990234 1114.04125977 C1475.67797432 1114.76173639 1474.4561342 1115.48236212 1473.234375 1116.203125 C1471.9688355 1116.93970742 1470.70271374 1117.67529027 1469.43603516 1118.40991211 C1466.8256347 1119.92562252 1464.2184576 1121.44666266 1461.61376953 1122.97216797 C1457.04078766 1125.64865275 1452.44856661 1128.29138768 1447.85571289 1130.93359375 C1444.64397626 1132.78167838 1441.4348824 1134.6342722 1438.2265625 1136.48828125 C1431.75177478 1140.22964156 1425.27451157 1143.96669983 1418.796875 1147.703125 C1416.6301975 1148.95310622 1414.46353083 1150.20310621 1412.296875 1151.453125 C1399.296875 1158.953125 1399.296875 1158.953125 1396.04638672 1160.82836914 C1393.88130429 1162.07748018 1391.71626518 1163.32666629 1389.55126953 1164.57592773 C1384.11071794 1167.71514809 1378.66940284 1170.85303063 1373.2265625 1173.98828125 C1362.77481301 1180.01059829 1352.33387952 1186.04981837 1341.921875 1192.140625 C1332.65187723 1197.56233678 1323.33855748 1202.90517415 1314.00842285 1208.22235107 C1304.8840466 1213.42357629 1295.79554726 1218.68340378 1286.72998047 1223.98657227 C1276.20602875 1230.14079242 1265.64307363 1236.22682496 1255.07910156 1242.31201172 C1249.65027558 1245.43992648 1244.22368219 1248.57170948 1238.796875 1251.703125 C1236.63021917 1252.95314379 1234.4635525 1254.20314378 1232.296875 1255.453125 C1231.224375 1256.071875 1230.151875 1256.690625 1229.046875 1257.328125 C1037.29687501 1367.95312499 1037.29687501 1367.95312499 1034.04638672 1369.82836914 C1031.88130429 1371.07748018 1029.71626518 1372.32666629 1027.55126953 1373.57592773 C1022.11071794 1376.71514809 1016.66940284 1379.85303063 1011.2265625 1382.98828125 C1000.77481301 1389.01059829 990.33387952 1395.04981837 979.921875 1401.140625 C970.65187723 1406.56233678 961.33855748 1411.90517415 952.00842285 1417.22235107 C942.8840466 1422.42357629 933.79554726 1427.68340378 924.72998047 1432.98657227 C914.20602875 1439.14079242 903.64307363 1445.22682496 893.07910156 1451.31201172 C887.65027558 1454.43992648 882.22368219 1457.57170948 876.796875 1460.703125 C874.63021917 1461.95314379 872.4635525 1463.20314378 870.296875 1464.453125 C869.224375 1465.071875 868.151875 1465.690625 867.046875 1466.328125 C805.29687502 1501.95312499 805.29687502 1501.95312499 802.04467773 1503.8293457 C799.88528105 1505.0751827 797.72593831 1506.32111318 795.56665039 1507.56713867 C790.03919903 1510.75661453 784.51072379 1513.94429385 778.98046875 1517.12890625 C766.88501454 1524.09635382 754.80901969 1531.09287223 742.796875 1538.203125 C743.16296875 1539.22921875 743.5290625 1540.2553125 743.90625 1541.3125 C769.12176289 1612.43769153 786.5346994 1683.90224918 792.796875 1759.203125 C792.86358398 1759.99412598 792.93029297 1760.78512695 792.99902344 1761.60009766 C793.36757643 1766.13068257 793.61229819 1770.66197905 793.796875 1775.203125 C793.84054199 1776.25757813 793.88420898 1777.31203125 793.92919922 1778.3984375 C794.59481422 1795.0007134 795.07286066 1811.5877165 794.796875 1828.203125 C794.77898926 1829.28867676 794.76110352 1830.37422852 794.74267578 1831.49267578 C793.16243647 1913.330617 778.23072786 1993.58978362 718.796875 2149.203125 C718.2620752 2150.31123535 717.72727539 2151.4193457 717.17626953 2152.56103516 C709.6266107 2168.11618983 701.52308806 2183.27796278 692.796875 2198.203125 C692.22243652 2199.19103027 691.64799805 2200.17893555 691.05615234 2201.19677734 C670.78966644 2235.93852987 647.7412574 2269.44186277 621.796875 2300.203125 C620.95125 2301.20988281 620.105625 2302.21664062 619.234375 2303.25390625 C616.92159709 2306.00103007 614.59747528 2308.73830702 612.26904297 2311.47216797 C610.73437377 2313.27661318 609.20504079 2315.08550019 607.67578125 2316.89453125 C598.51776097 2327.69421779 598.51776097 2327.69421779 593.4846344 2332.51441956 C591.74400688 2334.25602275 590.14741054 2336.0705919 588.54663086 2337.94116211 C585.05122332 2341.96039002 581.38479624 2345.76039248 577.61328125 2349.51953125 C576.95408188 2350.17968735 576.29488251 2350.83984344 575.6157074 2351.52000427 C574.23290665 2352.90348006 572.84886424 2354.28571583 571.46362305 2355.66674805 C569.36457157 2357.76044169 567.2709156 2359.85942374 565.17773438 2361.95898438 C563.82323714 2363.31282071 562.46842969 2364.66634675 561.11328125 2366.01953125 C560.49844376 2366.63639297 559.88360626 2367.2532547 559.25013733 2367.8888092 C555.48681874 2371.63227227 551.60596133 2375.18860719 547.58453369 2378.65357971 C544.99219141 2380.90062597 542.49473255 2383.23980594 539.984375 2385.578125 C535.33301951 2389.87508448 530.54612659 2393.94502642 525.609375 2397.9140625 C523.17361647 2399.8964993 520.7903266 2401.92706703 518.41723633 2403.98364258 C510.0565998 2411.19913002 501.22396618 2417.75626015 492.34472656 2424.31542969 C489.93220857 2426.10285678 487.53101995 2427.90437629 485.1328125 2429.7109375 C409.82211721 2486.20198782 321.87180103 2527.97802194 22.796875 2577.203125 C21.71132324 2577.18523926 20.62577148 2577.16735352 19.50732422 2577.14892578 C-28.19924748 2576.2277418 -75.45535198 2570.65465067 -122.203125 2561.203125 C-122.8741626 2561.06839783 -123.5452002 2560.93367065 -124.23657227 2560.79486084 C-200.84719245 2545.36255717 -275.65015358 2516.37649395 -343.203125 2477.203125 C-344.2456543 2476.6040332 -345.28818359 2476.00494141 -346.36230469 2475.38769531 C-359.87071419 2467.61333483 -373.05766817 2459.48261248 -386.015625 2450.828125 C-386.62761749 2450.41964325 -387.23960999 2450.0111615 -387.87014771 2449.59030151 C-400.37259306 2441.22445416 -412.62913502 2432.53160233 -424.578125 2423.390625 C-425.46951172 2422.7097583 -426.36089844 2422.0288916 -427.27929688 2421.32739258 C-435.38454685 2415.10993481 -443.34814587 2408.73334723 -451.203125 2402.203125 C-451.79061523 2401.71473145 -452.37810547 2401.22633789 -452.98339844 2400.72314453 C-459.33193241 2395.42914295 -465.58297251 2390.03981704 -471.69140625 2384.46875 C-473.77735688 2382.58717712 -475.88382105 2380.73721972 -478.00390625 2378.89453125 C-488.66108689 2369.58455333 -498.80749077 2359.68942061 -508.828125 2349.703125 C-509.56144043 2348.97440186 -510.29475586 2348.24567871 -511.05029297 2347.49487305 C-515.04162106 2343.49210455 -518.85120809 2339.39119536 -522.54150391 2335.10986328 C-525.1401623 2332.12785886 -527.86442817 2329.26751737 -530.578125 2326.390625 C-535.21406056 2321.43645268 -539.62403022 2316.37316524 -543.87109375 2311.078125 C-546.71670571 2307.56996687 -549.63887725 2304.13290966 -552.578125 2300.703125 C-553.09060791 2300.10306641 -553.60309082 2299.50300781 -554.13110352 2298.88476562 C-556.40867202 2296.23169894 -558.70981095 2293.65365491 -561.203125 2291.203125 C-572.14986378 2297.20171671 -582.98466293 2303.3710106 -593.75634766 2309.6784668 C-601.18151252 2314.02622657 -608.62306596 2318.34432782 -616.078125 2322.640625 C-617.69750977 2323.57394653 -617.69750977 2323.57394653 -619.34960938 2324.52612305 C-621.5399502 2325.78824017 -623.73038002 2327.05020285 -625.92089844 2328.31201172 C-631.34972442 2331.43992648 -636.77631781 2334.57170948 -642.203125 2337.703125 C-644.36978083 2338.95314379 -646.5364475 2340.20314378 -648.703125 2341.453125 C-649.775625 2342.071875 -650.848125 2342.690625 -651.953125 2343.328125 C-843.703125 2453.953125 -843.703125 2453.953125 -846.95361328 2455.82836914 C-849.11869571 2457.07748018 -851.28373482 2458.32666629 -853.44873047 2459.57592773 C-858.88928206 2462.71514809 -864.33059716 2465.85303063 -869.7734375 2468.98828125 C-880.22518699 2475.01059829 -890.66612048 2481.04981837 -901.078125 2487.140625 C-910.34812277 2492.56233678 -919.66144252 2497.90517415 -928.99157715 2503.22235107 C-938.1159534 2508.42357629 -947.20445274 2513.68340378 -956.27001953 2518.98657227 C-966.79397125 2525.14079242 -977.35692637 2531.22682496 -987.92089844 2537.31201172 C-993.34972442 2540.43992648 -998.77631781 2543.57170948 -1004.203125 2546.703125 C-1006.36978083 2547.95314379 -1008.5364475 2549.20314378 -1010.703125 2550.453125 C-1011.775625 2551.071875 -1012.848125 2551.690625 -1013.953125 2552.328125 C-1205.703125 2662.953125 -1205.703125 2662.953125 -1208.95361328 2664.82836914 C-1211.11869571 2666.07748018 -1213.28373482 2667.32666629 -1215.44873047 2668.57592773 C-1220.88928206 2671.71514809 -1226.33059716 2674.85303063 -1231.7734375 2677.98828125 C-1243.19500923 2684.56941162 -1254.60763693 2691.16432933 -1265.97338867 2697.84155273 C-1271.57891089 2701.12511251 -1277.21754633 2704.3384614 -1282.89453125 2707.49609375 C-1284.84017462 2708.58459832 -1286.78529614 2709.67402997 -1288.73028564 2710.76370239 C-1289.9959699 2711.46892941 -1291.26430639 2712.16941893 -1292.53533936 2712.86495972 C-1294.30466753 2713.83332288 -1296.06468268 2714.81864378 -1297.82421875 2715.8046875 C-1298.8392749 2716.36494629 -1299.85433105 2716.92520508 -1300.90014648 2717.50244141 C-1303.26928051 2718.99677334 -1303.26928051 2718.99677334 -1304.22338867 2721.11621094 C-1304.19410221 2724.13236411 -1303.00454219 2725.55227343 -1301.2578125 2727.9921875 C-1300.59950439 2728.92458252 -1299.94119629 2729.85697754 -1299.26293945 2730.81762695 C-1298.54195068 2731.81109131 -1297.82096191 2732.80455566 -1297.078125 2733.828125 C-1296.3461792 2734.85703857 -1295.6142334 2735.88595215 -1294.86010742 2736.94604492 C-1292.65368309 2740.0409848 -1290.43035154 2743.12313383 -1288.203125 2746.203125 C-1287.0345712 2747.83161159 -1285.8665494 2749.46048016 -1284.69921875 2751.08984375 C-1282.0775275 2754.74053592 -1279.43769448 2758.37769412 -1276.79296875 2762.01171875 C-1275.14088233 2764.28891895 -1273.4989251 2766.57313461 -1271.859375 2768.859375 C-1265.46379246 2777.77149642 -1258.94228275 2786.54793221 -1252.203125 2795.203125 C-1250.97038622 2796.80568542 -1249.74071103 2798.41056405 -1248.51123047 2800.015625 C-1239.09468989 2812.30031612 -1229.47201028 2824.4073775 -1219.6796875 2836.39453125 C-1218.37264959 2837.9954798 -1217.06889144 2839.59910476 -1215.765625 2841.203125 C-1210.00356059 2848.2822327 -1204.12205608 2855.25524393 -1198.203125 2862.203125 C-1197.70345215 2862.79061523 -1197.2037793 2863.37810547 -1196.68896484 2863.98339844 C-1190.94964465 2870.72760119 -1185.16552216 2877.41692777 -1179.21484375 2883.9765625 C-1177.35577831 2886.03416891 -1175.52384142 2888.11159263 -1173.703125 2890.203125 C-1166.49715344 2898.46685386 -1159.08504237 2906.54623059 -1151.66210938 2914.61474609 C-1150.16761636 2916.24178283 -1148.67736358 2917.87263027 -1147.1875 2919.50390625 C-1141.80905264 2925.37882568 -1136.36627142 2931.13702979 -1130.65234375 2936.69140625 C-1128.67989349 2938.71419017 -1126.83853998 2940.76285513 -1124.99902344 2942.90283203 C-1121.48516013 2946.93122971 -1117.80455348 2950.74692956 -1114.01953125 2954.51953125 C-1113.36033188 2955.17968735 -1112.70113251 2955.83984344 -1112.0219574 2956.52000427 C-1110.63915665 2957.90348006 -1109.25511424 2959.28571583 -1107.86987305 2960.66674805 C-1105.77082157 2962.76044169 -1103.6771656 2964.85942374 -1101.58398438 2966.95898438 C-1100.22948714 2968.31282071 -1098.87467969 2969.66634675 -1097.51953125 2971.01953125 C-1096.90469376 2971.63639297 -1096.28985626 2972.2532547 -1095.65638733 2972.8888092 C-1091.90567202 2976.61973549 -1088.03872292 2980.16014691 -1084.02244568 2983.60398865 C-1081.10871405 2986.16508423 -1078.41307031 2988.93005076 -1075.703125 2991.703125 C-1071.75295827 2995.69780859 -1067.77716428 2999.56154698 -1063.4921875 3003.19921875 C-1060.15467858 3006.1209629 -1056.93681118 3009.16738748 -1053.703125 3012.203125 C-1049.2238789 3016.4029991 -1044.73456431 3020.57008236 -1040.078125 3024.57421875 C-1037.81561319 3026.53977589 -1035.60621817 3028.55985809 -1033.390625 3030.578125 C-1029.02026816 3034.52683945 -1024.50009421 3038.2493971 -1019.921875 3041.953125 C-1017.28164771 3044.13814069 -1014.7358278 3046.39483891 -1012.203125 3048.703125 C-1007.55727662 3052.92728448 -1002.74622692 3056.90205032 -997.86523438 3060.85009766 C-995.97484305 3062.38895616 -994.09619793 3063.94147095 -992.21875 3065.49609375 C-983.92159091 3072.36614148 -975.56922093 3079.14623613 -967.06347656 3085.75634766 C-965.06308527 3087.31203254 -963.06656927 3088.87260755 -961.0703125 3090.43359375 C-938.66164141 3107.95926166 -938.66164141 3107.95926166 -915.69140625 3124.734375 C-913.15089082 3126.5240676 -910.63170001 3128.34045811 -908.12109375 3130.171875 C-854.98953934 3168.91599357 -798.81350125 3203.56159067 -741.203125 3235.203125 C-739.92405273 3235.90743652 -739.92405273 3235.90743652 -738.61914062 3236.62597656 C-697.86961314 3259.02501489 -656.21901982 3279.69837932 -613.55078125 3298.18554688 C-611.15400912 3299.224414 -608.75860706 3300.2663967 -606.36328125 3301.30859375 C-558.58673884 3322.06525169 -509.77205343 3340.20483699 -460.203125 3356.203125 C-459.02511322 3356.58407318 -459.02511322 3356.58407318 -457.82330322 3356.97271729 C-356.16936308 3389.7935467 -251.32889304 3411.43860344 520.41119385 3358.96166992 C522.82279836 3358.19488248 525.23609707 3357.43365699 527.64990234 3356.67382812 C581.78798263 3339.61145331 634.99656178 3319.4283474 686.796875 3296.203125 C688.12105639 3295.61157001 689.44527648 3295.02010163 690.76953125 3294.42871094 C710.28226881 3285.70317434 729.6220422 3276.65058763 748.796875 3267.203125 C749.50944458 3266.85231873 750.22201416 3266.50151245 750.95617676 3266.14007568 C768.80516274 3257.34740252 786.5905321 3248.48792711 803.96289062 3238.77832031 C807.17407419 3236.9934688 810.39869742 3235.23385871 813.625 3233.4765625 C830.23925407 3224.41323563 846.58313938 3214.96956566 862.796875 3205.203125 C863.96227951 3204.50353882 865.12780808 3203.80415928 866.29345703 3203.10498047 C902.72261873 3181.24288906 938.20289973 3157.86999534 972.796875 3133.203125 C973.52712891 3132.68459961 974.25738281 3132.16607422 975.00976562 3131.63183594 C986.6219344 3123.37575604 997.98035778 3114.80600904 1009.28222656 3106.13134766 C1011.6561749 3104.31101329 1014.03411695 3102.49607714 1016.4140625 3100.68359375 C1030.46832759 3089.97714958 1044.28558155 3079.04133914 1057.89453125 3067.7734375 C1060.41318464 3065.6943848 1062.94876499 3063.63644371 1065.484375 3061.578125 C1071.40497348 3056.73969029 1077.1937729 3051.751536 1082.98535156 3046.76025391 C1084.79049896 3045.20860564 1086.60126059 3043.66378915 1088.4140625 3042.12109375 C1094.82722635 3036.65877203 1101.14617912 3031.1237959 1107.35546875 3025.4296875 C1109.45842333 3023.51179293 1111.58356656 3021.62936455 1113.734375 3019.765625 C1118.64718288 3015.49318312 1123.42159339 3011.0701234 1128.21044922 3006.66015625 C1129.79898015 3005.20119155 1131.39273996 3003.74816723 1132.98828125 3002.296875 C1137.78261342 2997.93135266 1142.52150106 2993.54339925 1147.05909729 2988.90846252 C1148.75614565 2987.24309403 1150.51190284 2985.70638896 1152.32397461 2984.16772461 C1157.65700094 2979.52532135 1162.62185352 2974.52270259 1167.61328125 2969.51953125 C1168.63868424 2968.49480392 1169.66423546 2967.47022489 1170.68992615 2966.44578552 C1172.82705563 2964.3101207 1174.96239109 2962.17268292 1177.09643555 2960.03393555 C1179.81163375 2957.31304084 1182.53129833 2954.5966619 1185.25233555 2951.88160801 C1187.36729575 2949.77028686 1189.47983707 2947.65655825 1191.59168816 2945.54212761 C1192.59274163 2944.54041409 1193.59451885 2943.53942323 1194.59707832 2942.539217 C1199.70787994 2937.43778576 1204.72000297 2932.31090147 1209.40623474 2926.81394958 C1211.26287341 2924.66334364 1213.25844254 2922.68070873 1215.296875 2920.703125 C1218.59951351 2917.43927587 1221.69738148 2914.0889831 1224.71875 2910.56640625 C1227.51533112 2907.38608373 1230.40680284 2904.29838048 1233.296875 2901.203125 C1237.88780866 2896.27703965 1242.41938041 2891.32099922 1246.796875 2886.203125 C1247.67309821 2885.18092197 1248.54940845 2884.15879354 1249.42578125 2883.13671875 C1250.94145509 2881.36851669 1252.45668302 2879.59994066 1253.97070312 2877.83032227 C1257.74813431 2873.41728808 1261.54958733 2869.02573138 1265.359375 2864.640625 C1273.61509957 2855.12156891 1281.79571131 2845.58333354 1289.53613281 2835.63769531 C1293.01834793 2831.16897528 1296.58215219 2826.77324557 1300.171875 2822.390625 C1306.2885876 2814.90110439 1312.17826921 2807.25442358 1318.01660156 2799.546875 C1319.94369375 2797.00983646 1321.88114857 2794.48094725 1323.8203125 2791.953125 C1330.89133004 2782.72698826 1337.89225064 2773.47393274 1344.56640625 2763.95605469 C1345.89858265 2762.05823196 1347.23779321 2760.16550861 1348.578125 2758.2734375 C1350.60523152 2755.41102388 1352.6267379 2752.54476704 1354.64453125 2749.67578125 C1356.68226707 2746.77919103 1358.732204 2743.89196105 1360.79296875 2741.01171875 C1368.94047823 2729.56628668 1376.69947026 2717.87515929 1384.421875 2706.140625 C1384.94486176 2705.34677399 1385.46784851 2704.55292297 1386.00668335 2703.73501587 C1396.66062345 2687.54992522 1407.06373686 2671.21083933 1417.109375 2654.640625 C1417.46271912 2654.05805939 1417.81606323 2653.47549377 1418.18011475 2652.87527466 C1431.25604913 2631.29559601 1443.71505419 2609.35363722 1455.796875 2587.203125 C1456.11660278 2586.61694397 1456.43633057 2586.03076294 1456.76574707 2585.42681885 C1475.79271731 2550.4875755 1493.82871797 2514.91508501 1509.80200195 2478.47149658 C1510.87493097 2476.0251526 1511.95202756 2473.58066607 1513.02929688 2471.13623047 C1550.89787954 2385.09328856 1581.12308523 2296.36895008 1649.67120361 1884.88287354 C1649.78275226 1882.50427064 1649.89830776 1880.12590644 1650.01513672 1877.74755859 C1654.79905094 1776.19406924 1648.2483024 1673.07056151 1550.796875 1255.203125 C1550.46619019 1254.31183899 1550.13550537 1253.42055298 1549.7947998 1252.5022583 C1534.67612396 1211.82189254 1517.59877216 1171.91567613 1499.34375 1132.54785156 C1497.87602638 1129.37426988 1496.4278892 1126.192462 1494.984375 1123.0078125 C1494.17270708 1121.23920123 1493.36027971 1119.47093817 1492.546875 1117.703125 C1492.19979492 1116.93049316 1491.85271484 1116.15786133 1491.49511719 1115.36181641 C1490.67431536 1113.60337116 1489.74582912 1111.89585398 1488.796875 1110.203125 C1485.84529473 1108.84373532 1485.84529473 1108.84373532 1483.29858398 1110.3203125 Z M-214.203125 1331.203125 C-215.16782715 1331.68491211 -216.1325293 1332.16669922 -217.12646484 1332.66308594 C-250.24730926 1349.2677007 -281.92200973 1370.24685794 -310.203125 1394.203125 C-311.26917975 1395.09547218 -312.33560615 1395.98737548 -313.40234375 1396.87890625 C-319.25306299 1401.78307275 -325.02352395 1406.7596718 -330.66699219 1411.90258789 C-332.25322959 1413.34147074 -333.84640006 1414.77278904 -335.44970703 1416.19262695 C-341.63992589 1421.68369838 -347.56344683 1427.40810594 -353.3996582 1433.26928711 C-354.89617425 1434.77119425 -356.398008 1436.26763562 -357.90039062 1437.76367188 C-363.2122635 1443.07149732 -368.3356204 1448.48129551 -373.203125 1454.203125 C-374.24811885 1455.39488128 -375.29497852 1456.58500426 -376.34375 1457.7734375 C-383.0981734 1465.47822125 -389.62364822 1473.30881067 -395.85253906 1481.44482422 C-397.17463129 1483.16602961 -398.51226136 1484.87420088 -399.8515625 1486.58203125 C-421.89285147 1515.00988367 -440.07710871 1546.12540081 -456.203125 1578.203125 C-456.6578418 1579.09789551 -457.11255859 1579.99266602 -457.58105469 1580.91455078 C-491.22588082 1647.41545039 -507.88457978 1722.90886455 -483.55371094 1989.13427734 C-462.33325231 2053.45915315 -428.67084519 2113.29125462 -385.203125 2165.203125 C-384.69539551 2165.80995117 -384.18766602 2166.41677734 -383.66455078 2167.04199219 C-382.162589 2168.8300649 -380.6537234 2170.61196956 -379.140625 2172.390625 C-378.71894043 2172.88796143 -378.29725586 2173.38529785 -377.86279297 2173.89770508 C-368.50774423 2184.78424071 -358.50918956 2195.06168258 -348.34716797 2205.18945312 C-346.43729506 2207.09391005 -344.53290351 2209.00373319 -342.62890625 2210.9140625 C-336.65785422 2216.88865415 -330.68366744 2222.77545456 -324.203125 2228.203125 C-323.19298859 2229.07955284 -322.18382548 2229.9571041 -321.17578125 2230.8359375 C-313.11405276 2237.73980699 -304.78435363 2244.22815504 -296.30566406 2250.61083984 C-294.35048881 2252.09152412 -292.41134081 2253.59047325 -290.4765625 2255.09765625 C-218.95232469 2310.41770276 -130.14627981 2344.91747075 -17.203125 2360.203125 C-15.48270996 2360.38101563 -15.48270996 2360.38101563 -13.72753906 2360.5625 C19.40733547 2363.79798906 53.68811357 2363.59757847 86.796875 2360.203125 C88.02841309 2360.07953613 89.25995117 2359.95594727 90.52880859 2359.82861328 C153.57747204 2353.27180661 214.72767265 2335.69285399 271.796875 2308.203125 C273.16513428 2307.55077881 273.16513428 2307.55077881 274.56103516 2306.88525391 C314.13014111 2287.94565526 351.7751259 2263.380788 384.94921875 2234.6484375 C387.7463118 2232.24654415 390.6033089 2229.94066943 393.484375 2227.640625 C398.12095193 2223.87340624 402.30437681 2219.79762158 406.4765625 2215.52734375 C408.45842951 2213.54214026 410.47111523 2211.70233046 412.609375 2209.890625 C420.6087018 2203.0294138 428.11766324 2195.38132125 434.93359375 2187.34765625 C436.93735074 2185.04144538 439.00912792 2182.81110753 441.0949707 2180.5793457 C446.93629149 2174.32382381 452.49070599 2167.92427241 457.796875 2161.203125 C458.30444336 2160.5627832 458.81201172 2159.92244141 459.33496094 2159.26269531 C482.47288155 2130.01949734 502.38310955 2099.1812506 519.796875 2066.203125 C520.48281738 2064.90930908 520.48281738 2064.90930908 521.18261719 2063.58935547 C554.48337348 2000.30832867 573.85491097 1928.44924037 578.796875 1857.203125 C578.88300049 1856.02169922 578.96912598 1854.84027344 579.05786133 1853.62304688 C579.87385067 1841.73462478 579.99760835 1829.86632262 579.984375 1817.953125 C579.98377075 1816.94256042 579.9831665 1815.93199585 579.98254395 1814.89080811 C579.95564996 1798.25228376 579.50952463 1781.76649469 577.796875 1765.203125 C577.66796875 1763.95563477 577.5390625 1762.70814453 577.40625 1761.42285156 C571.48600009 1706.26311567 558.25494204 1652.0413934 535.796875 1601.203125 C535.32427246 1600.12998047 534.85166992 1599.05683594 534.36474609 1597.95117188 C515.81719192 1556.16189123 492.70396293 1517.20697782 464.421875 1481.265625 C463.7427002 1480.40203369 463.7427002 1480.40203369 463.04980469 1479.52099609 C455.91918119 1470.51065965 448.41260422 1461.80522571 440.796875 1453.203125 C440.21317139 1452.53458496 439.62946777 1451.86604492 439.02807617 1451.17724609 C432.54418912 1443.84281864 425.671159 1436.92495601 418.73999023 1430.01586914 C416.73109636 1428.01235514 414.72763111 1426.00352348 412.72460938 1423.99414062 C406.58617859 1417.85223548 400.45648491 1411.7854017 393.796875 1406.203125 C392.7129765 1405.25473398 391.63090728 1404.30424778 390.55078125 1403.3515625 C382.31671259 1396.16933302 373.79765238 1389.43852835 365.05175781 1382.89160156 C363.53557741 1381.75627202 362.02194077 1380.61753822 360.51074219 1379.47558594 C292.92005854 1328.41910579 213.22119775 1294.23136217 47.796875 1271.203125 C46.86037109 1271.18266113 45.92386719 1271.16219727 44.95898438 1271.14111328 C-34.39427903 1269.57322548 -114.77418468 1285.2934574 -214.203125 1331.203125 Z " fill="#333232" transform="translate(1782.203125,-0.203125)"/>
<path d="M0 0 C2.90285082 -0.00534946 5.80568356 -0.0134637 8.70852661 -0.02197647 C34.65089469 -0.08682941 60.47010094 0.60657646 86.36822128 2.12570572 C89.21745368 2.29202774 92.06714307 2.45003471 94.91677856 2.60927963 C99.87310789 2.89374923 104.8263032 3.21307681 109.77883911 3.55703354 C110.65363922 3.61733749 111.52843933 3.67764145 112.42974854 3.7397728 C177.50619947 8.28077417 242.3853105 16.67257249 306.40383911 29.24453354 C307.69813843 29.49860474 307.69813843 29.49860474 309.01858521 29.75780869 C315.23466702 30.98218186 321.44567337 32.23066457 327.65383911 33.49453354 C328.59828888 33.68673477 329.54273865 33.878936 330.51580811 34.07696152 C347.03970782 37.45228667 363.42521917 41.24616507 379.78225708 45.34658432 C384.34707514 46.47840317 388.92404294 47.55422372 393.50271606 48.6283226 C404.66307499 51.2534756 415.67521289 54.23203358 426.67581177 57.45595932 C430.58859744 58.5870044 434.51533171 59.66584207 438.44168091 60.74868393 C451.80506327 64.44352812 465.07669193 68.38549512 478.29299927 72.57583237 C479.76501556 73.04215814 481.23737339 73.50740656 482.70999146 73.97182846 C507.02156767 81.63932557 531.12907631 89.7943419 555.09133911 98.49453354 C556.2123703 98.90006454 557.33340149 99.30559555 558.48840332 99.72341537 C575.30143398 105.81847701 591.88374528 112.39787223 608.40383911 119.24453354 C609.93588483 119.87644791 611.46801749 120.50815159 613.00027466 121.13955307 C658.71515622 140.01460385 704.34976908 160.34108911 747.88235474 183.88808823 C750.88659704 185.50423561 753.9028835 187.09684946 756.91946411 188.68984604 C770.44070726 195.84519486 783.76239435 203.26787407 796.93899536 211.04531479 C801.73378566 213.86984883 806.58276033 216.5774117 811.46633911 219.24453354 C828.05911075 228.35195787 844.04489799 238.55623421 860.00393677 248.72158432 C862.45823481 250.27905239 864.92042441 251.82337459 867.38430786 253.36562729 C890.5393521 267.90792571 913.12171615 283.40142547 935.40383911 299.24453354 C936.51227173 300.0310228 936.51227173 300.0310228 937.64309692 300.83340073 C948.38342978 308.47024151 958.90177326 316.37626143 969.36087036 324.39297104 C973.13539891 327.28394756 976.93388738 330.13932277 980.75149536 332.97304916 C988.1739643 338.48456437 995.37710208 344.22217183 1002.52493286 350.08437729 C1006.17079322 353.06917006 1009.87239376 355.97667456 1013.59133911 358.86953354 C1019.29577377 363.31688131 1024.82998446 367.93816316 1030.32962036 372.63515854 C1033.11116999 375.00722389 1035.93732572 377.31946066 1038.77883911 379.61953354 C1048.50728686 387.54431287 1057.92440395 395.84999625 1067.22024536 404.27578354 C1069.22121896 406.07988138 1071.24334221 407.85460371 1073.27883911 409.61953354 C1077.19845478 413.03339235 1081.02551316 416.54552106 1084.84963989 420.06533432 C1087.93008551 422.89926726 1091.0305231 425.70773642 1094.15383911 428.49453354 C1105.00977256 438.25793695 1115.59821413 448.27946928 1125.82424927 458.70180893 C1129.60012299 462.52969876 1133.49844413 466.12943472 1137.56936646 469.6415062 C1139.96201757 471.73228969 1142.22364348 473.93184977 1144.46633911 476.18203354 C1145.24106567 476.95418198 1146.01579224 477.72633041 1146.81399536 478.52187729 C1148.81988583 480.63063394 1150.72437462 482.76165413 1152.61868286 484.96718979 C1156.81316172 489.79772829 1161.34643139 494.25912278 1165.90383911 498.74453354 C1171.01589643 503.77583166 1176.00627844 508.82238243 1180.67922974 514.26601791 C1183.81173096 517.85970278 1187.11940058 521.29021025 1190.40383911 524.74453354 C1194.98969138 529.56758506 1199.49374371 534.43425602 1203.85403442 539.46279526 C1205.79408752 541.69318396 1207.78434214 543.87531367 1209.77883911 546.05703354 C1212.90806738 549.51983436 1215.9088426 553.05132357 1218.84133911 556.68203354 C1221.91720499 560.48540857 1225.09137077 564.14536006 1228.40383911 567.74453354 C1232.81895265 572.55240257 1236.97038393 577.51862679 1241.06692505 582.59853745 C1243.18138245 585.20183763 1245.32508046 587.78082846 1247.46414185 590.3639183 C1253.79279347 598.01228068 1260.0018293 605.74001908 1266.09915161 613.5736351 C1267.38189265 615.21642695 1268.67250127 616.85265907 1269.96633911 618.48672104 C1286.86572017 639.8439876 1303.19735453 661.64774945 1318.80618286 683.96572495 C1320.5716937 686.48395205 1322.34680127 688.99526275 1324.12258911 691.50625229 C1325.38314087 693.29391745 1326.64355977 695.08167632 1327.90383911 696.86953354 C1328.78555786 698.11368027 1328.78555786 698.11368027 1329.68508911 699.38296127 C1332.85236702 703.8887257 1335.76065781 708.41165792 1338.40383911 713.24453354 C1322.86150552 722.33385298 1307.28775058 731.36634931 1291.68606567 740.35342026 C1286.25723969 743.48133502 1280.8306463 746.61311802 1275.40383911 749.74453354 C1273.23718328 750.99455233 1271.07051661 752.24455232 1268.90383911 753.49453354 C1267.83133911 754.11328354 1266.75883911 754.73203354 1265.65383911 755.36953354 C1099.90383909 850.99453355 1099.90383909 850.99453355 1096.65335083 852.86977768 C1094.4882684 854.11888872 1092.32322929 855.36807483 1090.15823364 856.61733627 C1084.71768205 859.75655663 1079.27636695 862.89443917 1073.83352661 866.02968979 C1063.38177712 872.05200683 1052.94084363 878.09122691 1042.52883911 884.18203354 C1033.25884134 889.60374531 1023.94552159 894.94658269 1014.61538696 900.26375961 C1005.49101071 905.46498483 996.40251137 910.72481232 987.33694458 916.0279808 C976.81299286 922.18220095 966.25003774 928.2682335 955.68606567 934.35342026 C950.25723969 937.48133502 944.8306463 940.61311802 939.40383911 943.74453354 C937.23718328 944.99455233 935.07051661 946.24455232 932.90383911 947.49453354 C931.83133911 948.11328354 930.75883911 948.73203354 929.65383911 949.36953354 C737.90383912 1059.99453353 737.90383912 1059.99453353 734.65335083 1061.86977768 C732.4882684 1063.11888872 730.32322929 1064.36807483 728.15823364 1065.61733627 C722.71768205 1068.75655663 717.27636695 1071.89443917 711.83352661 1075.02968979 C701.38177712 1081.05200683 690.94084363 1087.09122691 680.52883911 1093.18203354 C671.85121249 1098.25728723 663.13762398 1103.26683686 654.40383911 1108.24453354 C645.58985797 1113.26894897 636.79193491 1118.31915322 628.02883911 1123.43203354 C627.06510376 1123.99422592 626.10136841 1124.5564183 625.10842896 1125.13564682 C620.08924614 1128.07021209 615.08387341 1131.02656394 610.09133911 1134.00625229 C609.07346313 1134.6125145 608.05558716 1135.2187767 607.00686646 1135.84341049 C605.06208425 1137.00329659 603.11959039 1138.16703061 601.17971802 1139.33510971 C600.3178186 1139.84920395 599.45591919 1140.36329819 598.56790161 1140.89297104 C597.80944946 1141.3484935 597.05099731 1141.80401596 596.26956177 1142.27334213 C594.40383911 1143.24453354 594.40383911 1143.24453354 592.40383911 1143.24453354 C590.84524536 1141.51406479 590.84524536 1141.51406479 588.96633911 1139.05703354 C584.42349757 1133.23728518 579.68324337 1127.60599934 574.89212036 1121.99160385 C573.34990026 1120.18121555 571.81413676 1118.36548196 570.27883911 1116.54922104 C563.43895578 1108.47851524 563.43895578 1108.47851524 556.06130981 1100.9029808 C554.48602293 1099.32676578 553.06890383 1097.69795239 551.63821411 1095.99062729 C546.23099777 1089.77271996 540.3305828 1084.02255305 534.49783325 1078.20815659 C532.47120931 1076.18689086 530.44998364 1074.1603378 528.42922974 1072.13320541 C522.25477752 1065.95556698 516.06853733 1059.89677041 509.40383911 1054.24453354 C507.44906735 1052.47091321 505.52284769 1050.668673 503.59133911 1048.86953354 C498.94826722 1044.58022651 494.16942294 1040.51774735 489.24368286 1036.55312729 C486.68565121 1034.473627 484.17241117 1032.35401072 481.66873169 1030.21010971 C474.76701164 1024.30506503 467.67586751 1018.68674039 460.40383911 1013.24453354 C459.36380737 1012.46553696 459.36380737 1012.46553696 458.30276489 1011.67080307 C441.73452574 999.29431036 424.95295232 987.19930433 407.40383911 976.24453354 C406.42286255 975.62836166 405.44188599 975.01218979 404.43118286 974.37734604 C401.10371354 972.3078748 397.75891193 970.26879104 394.40383911 968.24453354 C393.63604126 967.78063217 392.86824341 967.3167308 392.07717896 966.83877182 C373.36514058 955.56832561 354.30212822 944.87578046 334.64407349 935.33584213 C332.05294407 934.0735984 329.47121712 932.79285294 326.88821411 931.51406479 C312.1244185 924.26131895 297.14204954 917.78260317 281.88723755 911.64760971 C279.53240798 910.69910918 277.18156537 909.74065913 274.83450317 908.77309799 C265.15486038 904.8166952 255.33840469 901.43794366 245.40383911 898.18203354 C243.86463312 897.67400452 242.32557016 897.16554196 240.78665161 896.65664291 C237.76700498 895.65837293 234.74607618 894.6641183 231.72439575 893.67202377 C228.94232724 892.75660598 226.16572986 891.82724503 223.39382935 890.88149643 C215.4894337 888.18997422 207.56458884 885.84274035 199.46633911 883.80703354 C198.44733521 883.54599838 197.4283313 883.28496323 196.37844849 883.01601791 C194.11357581 882.43789726 191.84726213 881.86540499 189.5798645 881.29726791 C186.38969112 880.49764015 183.20592247 879.67503271 180.0227356 878.84804916 C165.88342081 875.20402821 151.71093239 872.19894256 137.34133911 869.61953354 C136.27480103 869.42654678 135.20826294 869.23356003 134.10940552 869.03472519 C117.32817963 866.0072279 100.58207013 863.19160512 83.60836792 861.47176743 C81.21692513 861.2252672 78.8273225 860.96405836 76.43753052 860.70205307 C-14.42123142 850.88800415 -106.90648001 858.69913153 -222.59616089 889.24453354 C-223.25444885 889.44778244 -223.91273682 889.65103134 -224.5909729 889.8604393 C-285.58014717 908.70286659 -344.15493577 934.85866368 -398.59616089 968.24453354 C-399.91366333 969.05035873 -399.91366333 969.05035873 -401.25778198 969.87246323 C-425.65116309 984.85786247 -449.29730464 1001.28343018 -471.59616089 1019.24453354 C-472.23795288 1019.76015854 -472.87974487 1020.27578354 -473.54098511 1020.80703354 C-485.58018019 1030.49193594 -497.50332851 1040.2829393 -508.86569214 1050.76015854 C-511.02759888 1052.72721531 -513.21043024 1054.65599872 -515.41647339 1056.57265854 C-519.58245251 1060.20817324 -523.63587301 1063.95170037 -527.65866089 1067.74453354 C-528.3874646 1068.43160385 -529.11626831 1069.11867416 -529.86715698 1069.82656479 C-534.87872712 1074.57242735 -539.83041686 1079.37426845 -544.72116089 1084.24453354 C-545.31163208 1084.83041245 -545.90210327 1085.41629135 -546.51046753 1086.01992416 C-550.10548503 1089.62770988 -553.48838003 1093.37062796 -556.81930542 1097.22256088 C-559.77699789 1100.58826699 -562.88297464 1103.81155631 -565.97116089 1107.05703354 C-571.01511258 1112.39816072 -575.86048785 1117.81102989 -580.43991089 1123.56093979 C-582.40435923 1126.00582386 -584.42420325 1128.39265422 -586.47042847 1130.76919174 C-592.99557703 1138.35967068 -599.05332942 1146.27299104 -605.0854187 1154.25771713 C-606.42654933 1156.02147296 -607.78226203 1157.77158629 -609.15084839 1159.51406479 C-632.48329089 1189.31074136 -652.73211475 1221.916507 -670.59616089 1255.24453354 C-671.26929321 1256.49822739 -671.26929321 1256.49822739 -671.95602417 1257.77724838 C-686.12589939 1284.28690531 -698.69084488 1311.2387701 -709.77032471 1339.16500473 C-710.328589 1340.57076376 -710.88905299 1341.97565092 -711.45153809 1343.37972641 C-716.21398536 1355.27891538 -720.45523568 1367.30364248 -724.40866089 1379.49453354 C-724.85995865 1380.88431915 -724.85995865 1380.88431915 -725.32037354 1382.30218124 C-739.3723302 1425.75716211 -749.35663385 1470.24621837 -755.12155151 1515.55752182 C-755.54159124 1518.82060824 -755.99064961 1522.07744512 -756.45553589 1525.33437729 C-757.28866814 1531.29284826 -757.96739215 1537.26131168 -758.59616089 1543.24453354 C-758.73296265 1544.50281967 -758.8697644 1545.7611058 -759.01071167 1547.05752182 C-764.28293907 1596.84336534 -763.30853113 1648.1228368 -757.85855103 1697.83297348 C-757.61613461 1700.06096019 -757.3850716 1702.28972543 -757.15914917 1704.51943588 C-751.30992521 1761.04775425 -737.15898637 1815.80288642 -718.68209839 1869.37343979 C-718.4221106 1870.13077911 -718.1621228 1870.88811844 -717.89425659 1871.66840744 C-716.6610333 1875.24340122 -715.39820196 1878.80040635 -714.05026245 1882.33388901 C-713.81103058 1882.96987518 -713.57179871 1883.60586136 -713.32531738 1884.26111984 C-712.68285881 1885.95852251 -712.02606017 1887.65047842 -711.36813354 1889.34194565 C-710.51481134 1892.55040477 -710.36352425 1894.16343121 -711.59616089 1897.24453354 C-713.62374878 1898.87514877 -713.62374878 1898.87514877 -716.31881714 1900.30312729 C-717.3196936 1900.84638657 -718.32057007 1901.38964584 -719.35177612 1901.94936752 C-720.98868408 1902.8070372 -720.98868408 1902.8070372 -722.65866089 1903.68203354 C-724.9644589 1904.92998385 -727.26912001 1906.18003675 -729.57272339 1907.43203354 C-730.16151779 1907.74937958 -730.75031219 1908.06672562 -731.35694885 1908.3936882 C-737.16056679 1911.5257655 -742.85159838 1914.83600928 -748.53366089 1918.18203354 C-750.52427898 1919.34915627 -752.51516708 1920.51581859 -754.50631714 1921.68203354 C-756.00122681 1922.55795151 -756.00122681 1922.55795151 -757.52633667 1923.45156479 C-762.82943338 1926.54890392 -768.15011024 1929.61567212 -773.47116089 1932.68203354 C-774.5513147 1933.30457016 -775.63146851 1933.92710678 -776.74435425 1934.56850815 C-778.93412423 1935.8303018 -781.12398444 1937.09193888 -783.31393433 1938.35342026 C-788.74276031 1941.48133502 -794.1693537 1944.61311802 -799.59616089 1947.74453354 C-801.76281672 1948.99455233 -803.92948339 1950.24455232 -806.09616089 1951.49453354 C-807.16866089 1952.11328354 -808.24116089 1952.73203354 -809.34616089 1953.36953354 C-975.09616091 2048.99453355 -975.09616091 2048.99453355 -978.34664917 2050.86977768 C-980.5117316 2052.11888872 -982.67677071 2053.36807483 -984.84176636 2054.61733627 C-990.28231795 2057.75655663 -995.72363305 2060.89443917 -1001.16647339 2064.02968979 C-1011.61822288 2070.05200683 -1022.05915637 2076.09122691 -1032.47116089 2082.18203354 C-1041.74115866 2087.60374531 -1051.05447841 2092.94658269 -1060.38461304 2098.26375961 C-1069.50898929 2103.46498483 -1078.59748863 2108.72481232 -1087.66305542 2114.0279808 C-1098.18700714 2120.18220095 -1108.74996226 2126.2682335 -1119.31393433 2132.35342026 C-1124.74276031 2135.48133502 -1130.1693537 2138.61311802 -1135.59616089 2141.74453354 C-1137.76281672 2142.99455233 -1139.92948339 2144.24455232 -1142.09616089 2145.49453354 C-1143.16866089 2146.11328354 -1144.24116089 2146.73203354 -1145.34616089 2147.36953354 C-1337.09616088 2257.99453354 -1337.09616088 2257.99453354 -1340.34664917 2259.86977768 C-1342.5117316 2261.11888872 -1344.67677071 2262.36807483 -1346.84176636 2263.61733627 C-1352.28231795 2266.75655663 -1357.72363305 2269.89443917 -1363.16647339 2273.02968979 C-1373.61822325 2279.05200704 -1384.05912791 2285.09127518 -1394.47116089 2291.18203354 C-1404.43251438 2297.00753184 -1414.44033014 2302.74927103 -1424.4682312 2308.45913315 C-1429.83393027 2311.51552094 -1435.19237287 2314.5824577 -1440.52194214 2317.70156479 C-1441.40905884 2318.22017075 -1442.29617554 2318.7387767 -1443.21017456 2319.27309799 C-1444.83885261 2320.22750175 -1446.46545359 2321.18546233 -1448.08956909 2322.14760971 C-1453.3766027 2325.24453354 -1453.3766027 2325.24453354 -1455.59616089 2325.24453354 C-1466.85269875 2302.49040957 -1477.61825081 2279.58899135 -1487.59616089 2256.24453354 C-1487.90811401 2255.51514572 -1488.22006714 2254.7857579 -1488.54147339 2254.03426743 C-1511.5178389 2200.23785014 -1531.95612906 2145.02355886 -1548.76266479 2088.98281479 C-1549.79260728 2085.59914902 -1550.87992696 2082.23585513 -1551.97164917 2078.8717308 C-1554.74493714 2070.30705874 -1557.13711518 2061.6807821 -1559.32907104 2052.94887924 C-1560.76032148 2047.28321195 -1562.33935771 2041.67893858 -1564.01022339 2036.08047104 C-1566.53156566 2027.60435661 -1568.77632142 2019.07594618 -1570.90866089 2010.49453354 C-1571.09836456 2009.73462112 -1571.28806824 2008.97470871 -1571.48352051 2008.19176865 C-1575.76409182 1990.99955754 -1579.51908749 1973.70342073 -1583.15084839 1956.36428452 C-1583.57877671 1954.32728471 -1584.01039628 1952.29111325 -1584.44381714 1950.25527573 C-1588.04207193 1933.34608564 -1591.31948955 1916.40277552 -1594.23355103 1899.36227036 C-1594.62504764 1897.07582735 -1595.01901923 1894.78981754 -1595.41305542 1892.50381088 C-1606.43721096 1828.41410992 -1613.28028649 1764.13726157 -1616.94772339 1699.22109604 C-1616.99864136 1698.32510193 -1617.04955933 1697.42910782 -1617.10202026 1696.50596237 C-1617.27349745 1693.4191505 -1617.43510678 1690.33190762 -1617.59616089 1687.24453354 C-1617.63673677 1686.50178617 -1617.67731266 1685.75903881 -1617.71911812 1684.99378395 C-1618.42044087 1672.07579273 -1618.75686248 1659.20011072 -1618.76412964 1646.26406479 C-1618.76825842 1644.41324953 -1618.77258706 1642.5624347 -1618.77709961 1640.71162033 C-1618.78871076 1634.82674689 -1618.78753961 1628.94191462 -1618.78366089 1623.05703354 C-1618.78324673 1622.05034622 -1618.78283257 1621.04365891 -1618.78240585 1620.00646591 C-1618.7662693 1588.713525 -1618.62344655 1557.48368471 -1616.59616089 1526.24453354 C-1616.5160376 1525.00584518 -1616.43591431 1523.76715683 -1616.35336304 1522.49093246 C-1614.16459761 1488.92405076 -1611.51918159 1455.42501464 -1607.21237183 1422.05508041 C-1606.69203162 1418.02054959 -1606.19668399 1413.98343118 -1605.71002197 1409.94471359 C-1603.47965225 1391.44706726 -1600.87984809 1373.02289274 -1597.97116089 1354.61953354 C-1597.824953 1353.68787369 -1597.67874512 1352.75621384 -1597.52810669 1351.79632187 C-1596.0797416 1342.61039111 -1594.52970011 1333.5276578 -1592.33200073 1324.48623276 C-1591.30263035 1319.951402 -1590.52563073 1315.38322544 -1589.73699951 1310.80150986 C-1588.39351368 1303.00833544 -1586.89341475 1295.24957729 -1585.34616089 1287.49453354 C-1585.19720367 1286.74640396 -1585.04824646 1285.99827438 -1584.89477539 1285.22747421 C-1582.10732687 1271.28655252 -1578.85804532 1257.49188265 -1575.4369812 1243.69228745 C-1574.03225222 1237.93224603 -1572.72434548 1232.15043249 -1571.40866089 1226.36953354 C-1568.19090605 1212.33625865 -1564.42233735 1198.53523649 -1560.35836792 1184.72524643 C-1558.89263274 1179.73538737 -1557.44612832 1174.74328424 -1556.08053589 1169.72500229 C-1536.25613538 1096.88452718 -1509.47084548 1026.0792965 -1478.59616089 957.24453354 C-1478.27327087 956.52463242 -1477.95038086 955.80473129 -1477.6177063 955.06301498 C-1469.67331235 937.37211797 -1461.59375686 919.77899184 -1452.75289917 902.51406479 C-1451.31464248 899.69219181 -1449.90880606 896.85494903 -1448.50411987 894.01626205 C-1444.86824768 886.6759163 -1441.0795333 879.42230307 -1437.24313354 872.18496323 C-1434.72516505 867.42523445 -1432.28475201 862.63912915 -1429.90866089 857.80703354 C-1427.30480658 852.55042624 -1424.48946898 847.47853976 -1421.46725464 842.45156479 C-1417.70240306 835.99865634 -1414.21292314 829.38952378 -1410.66647339 822.81484604 C-1405.8989811 813.98775457 -1401.11708993 805.22810454 -1395.76412964 796.74062729 C-1393.46972723 793.08251891 -1391.30077738 789.35319402 -1389.12081909 785.62612534 C-1381.90935906 773.3025011 -1374.33738072 761.24089146 -1366.59616089 749.24453354 C-1365.60380342 747.70037192 -1364.61160751 746.15610646 -1363.61959839 744.61172104 C-1349.15317303 722.13018202 -1334.13374397 699.99919831 -1318.59616089 678.24453354 C-1318.09439331 677.53941635 -1317.59262573 676.83429916 -1317.07565308 676.10781479 C-1309.40586394 665.34014611 -1301.48953201 654.7797235 -1293.44772339 644.28750229 C-1290.55649938 640.51265062 -1287.70089094 636.71382866 -1284.86691284 632.89590073 C-1278.80777614 624.73589811 -1272.46832123 616.83546746 -1266.01803589 608.98232651 C-1264.10784566 606.64772245 -1262.22506976 604.29185361 -1260.34616089 601.93203354 C-1253.91622124 593.87782939 -1247.36225624 585.93538438 -1240.68502808 578.08559799 C-1237.75391269 574.63370267 -1234.87926858 571.14266687 -1232.03366089 567.61953354 C-1228.16036817 562.85933301 -1224.08856097 558.3164857 -1219.93600464 553.79922104 C-1217.9378124 551.61755539 -1215.974672 549.41442045 -1214.03366089 547.18203354 C-1210.70070083 543.34951974 -1207.30780432 539.57345384 -1203.90475464 535.80312729 C-1202.41496808 534.15201021 -1200.92779212 532.4985321 -1199.44381714 530.84218979 C-1193.80462852 524.55036452 -1188.09804337 518.3231726 -1182.34851074 512.1323204 C-1181.22161029 510.91832317 -1180.09569398 509.70341127 -1178.9710083 508.48736191 C-1167.38398167 495.97485461 -1155.39024504 483.88229758 -1143.32077026 471.83877182 C-1140.61019063 469.13395412 -1137.90421799 466.42457832 -1135.19948578 463.71391487 C-1133.08045912 461.59125579 -1130.95903368 459.47100691 -1128.8368988 457.35145569 C-1127.83797716 456.35319252 -1126.83977369 455.35421007 -1125.84236145 454.35443878 C-1120.76482487 449.26750076 -1115.65802811 444.28407333 -1110.1890564 439.61724472 C-1108.22121869 437.92141922 -1106.39998399 436.11277889 -1104.59616089 434.24453354 C-1101.51370584 431.12042369 -1098.32106317 428.21752265 -1094.99459839 425.35781479 C-1091.80469136 422.5471638 -1088.70360198 419.6457394 -1085.59616089 416.74453354 C-1080.67005289 412.15362263 -1075.71403647 407.62202929 -1070.59616089 403.24453354 C-1069.57395786 402.36831033 -1068.55182943 401.49200008 -1067.52975464 400.61562729 C-1065.7631554 399.10125538 -1063.99610959 397.58741924 -1062.22775269 396.07509995 C-1058.41031647 392.80850354 -1054.61091415 389.5221717 -1050.82199097 386.22256088 C-1044.17709417 380.43827022 -1037.4478208 374.78373371 -1030.59616089 369.24453354 C-1028.86618331 367.82885723 -1027.13703852 366.41216274 -1025.40866089 364.99453354 C-1024.04741089 363.88271713 -1024.04741089 363.88271713 -1022.65866089 362.74843979 C-1020.40527432 360.90606633 -1018.15590817 359.05920327 -1015.90866089 357.20937729 C-1008.6392045 351.24347171 -1001.28714559 345.43520153 -993.73361206 339.83291245 C-988.6660918 336.06931193 -983.68633228 332.20433391 -978.72116089 328.30703354 C-970.57896537 321.93495657 -962.25222594 315.85442053 -953.83737183 309.84902573 C-951.60734067 308.25253719 -949.38556249 306.64525236 -947.16647339 305.03359604 C-933.10737056 294.82397265 -918.97153285 284.70011118 -904.46334839 275.13515854 C-901.86556603 273.42217944 -899.28320751 271.68769798 -896.70236206 269.94936752 C-866.70572423 249.80054382 -835.78261425 231.11343549 -804.54830933 212.96377182 C-801.80252558 211.36471384 -799.06177135 209.75743749 -796.32272339 208.14687729 C-788.25900178 203.41890517 -780.18726247 198.94198009 -771.77975464 194.85000229 C-768.67549413 193.28454085 -765.70523367 191.58946627 -762.72116089 189.80703354 C-757.5891784 186.7563174 -752.348123 184.06207084 -746.99533081 181.42959213 C-742.58000096 179.25266456 -738.2156999 176.99895498 -733.87301636 174.6805687 C-723.35107861 169.06491542 -712.66022836 163.86739255 -701.86959839 158.7899437 C-698.4289389 157.165587 -694.99682385 155.52400084 -691.56491089 153.88125229 C-624.81659862 122.0425008 -555.17721788 94.07671096 -484.24508667 73.04140854 C-480.92908398 72.04385713 -477.63381257 70.98778439 -474.33834839 69.92470932 C-456.66798607 64.23050994 -438.72347144 59.47501579 -420.74337769 54.86977768 C-415.22818563 53.45537296 -409.7233683 52.0165081 -404.23678589 50.49453354 C-387.7972972 45.93824696 -371.24779862 42.19553839 -354.56655884 38.66311264 C-351.37840568 37.98584119 -348.1924287 37.29852262 -345.00631714 36.61172104 C-339.22374216 35.36583933 -333.43933944 34.12881035 -327.65377808 32.89687729 C-324.84473096 32.29756605 -322.03672095 31.69364788 -319.22897339 31.08828354 C-317.62223637 30.74437552 -316.01546804 30.40061372 -314.40866089 30.05703354 C-313.42385742 29.84300888 -313.42385742 29.84300888 -312.41915894 29.62466049 C-305.24703923 28.10053009 -298.01598124 26.88755865 -290.79370117 25.62896347 C-288.73621914 25.26903483 -286.67957096 24.90479034 -284.6232605 24.53823471 C-221.04305854 13.2223316 -157.01866625 6.36751408 -92.59616089 2.24453354 C-91.51123352 2.17450119 -90.42630615 2.10446884 -89.3085022 2.0323143 C-59.56430537 0.14303168 -29.79295617 0.04901203 0 0 Z " fill="#EC1B24" transform="translate(1818.5961608886719,199.75546646118164)"/>
</svg>
